<?xml version="1.0" encoding="utf-8"?>
<!-- Generator: Adobe Illustrator 21.0.2, SVG Export Plug-In . SVG Version: 6.00 Build 0)  -->
<svg version="1.1" id="Calque_1" xmlns="http://www.w3.org/2000/svg" xmlns:xlink="http://www.w3.org/1999/xlink" x="0px" y="0px"
	 viewBox="0 0 212 140" style="enable-background:new 0 0 212 140;" xml:space="preserve">
<style type="text/css">
	.st0{fill:#FFFFFF;}
	.st1{fill:none;stroke:#C2241A;stroke-width:1.8715;stroke-linecap:round;stroke-linejoin:round;stroke-miterlimit:10;}
	.st2{fill:none;stroke:#9FBE37;stroke-width:1.8715;stroke-linecap:round;stroke-linejoin:round;stroke-miterlimit:10;}
	.st3{fill:none;stroke:#9FBE37;stroke-width:1.8715;stroke-linejoin:round;stroke-miterlimit:10;}
	.st4{fill:none;stroke:#C2241A;stroke-width:1.8715;stroke-linejoin:round;stroke-miterlimit:10;}
	.st5{fill:none;stroke:#9FBE37;stroke-width:1.8715;stroke-linecap:round;stroke-miterlimit:10;}
	.st6{fill:none;stroke:#C2241A;stroke-width:1.8715;stroke-linecap:round;stroke-miterlimit:10;}
</style>
<g>
	<path class="st0" d="M144.2,72.6l-8.9,6.7c0.5,0.5,0.9,1.2,1.2,1.8c0.7,2.4-0.5,4.7-2.9,5.5c-2.1,0.7-4.2-0.4-5.2-2.2l-18,13.5
		l8.2,10.8c0.5-1,1.4-2,2.7-2.4c2.4-0.7,4.8,0.7,5.5,2.9s-0.7,4.7-2.9,5.5c-0.3,0-0.4,0.1-0.7,0.1l3.1,4.2l12.3-9.1
		c-0.3-0.4-0.5-0.8-0.7-1.3c-0.7-2.4,0.5-4.7,2.9-5.5c1.8-0.5,3.7,0.1,4.7,1.4l14.5-11l-7.4-9.8c-0.3,0.3-0.7,0.4-1,0.5
		c-2.4,0.7-4.8-0.5-5.5-2.9c-0.5-1.7,0.1-3.5,1.3-4.6L144.2,72.6z"/>
	<path class="st1" d="M144.2,72.6l-8.9,6.7c0.5,0.5,0.9,1.2,1.2,1.8c0.7,2.4-0.5,4.7-2.9,5.5c-2.1,0.7-4.2-0.4-5.2-2.2l-18,13.5
		l8.2,10.8c0.5-1,1.4-2,2.7-2.4c2.4-0.7,4.8,0.7,5.5,2.9s-0.7,4.7-2.9,5.5c-0.3,0-0.4,0.1-0.7,0.1l3.1,4.2l12.3-9.1
		c-0.3-0.4-0.5-0.8-0.7-1.3c-0.7-2.4,0.5-4.7,2.9-5.5c1.8-0.5,3.7,0.1,4.7,1.4l14.5-11l-7.4-9.8c-0.3,0.3-0.7,0.4-1,0.5
		c-2.4,0.7-4.8-0.5-5.5-2.9c-0.5-1.7,0.1-3.5,1.3-4.6L144.2,72.6z"/>
	<path class="st0" d="M143,89.7c-1.8,0.5-2.9,2.6-2.4,4.4s2.6,2.9,4.4,2.4c1.8-0.5,2.9-2.6,2.4-4.4C146.8,90.3,144.9,89.2,143,89.7"
		/>
	<ellipse transform="matrix(0.956 -0.2934 0.2934 0.956 -20.9828 46.3651)" class="st2" cx="144.1" cy="93.1" rx="3.5" ry="3.5"/>
	<path class="st0" d="M126.6,94.8c-1.8,0.5-2.9,2.6-2.4,4.4c0.5,1.8,2.6,2.9,4.4,2.4c1.8-0.5,2.9-2.6,2.4-4.4
		C130.5,95.2,128.5,94.2,126.6,94.8"/>
	<ellipse transform="matrix(0.956 -0.2934 0.2934 0.956 -23.2061 41.7672)" class="st2" cx="127.6" cy="98.2" rx="3.5" ry="3.5"/>
	<path class="st0" d="M120.9,66.2l12-45.3c7.7,7.2,13.6,16.2,16.9,26.4L120.9,66.2z M110.6,66.2l11-45.3H133l-12,45.3H110.6z"/>
	<path class="st3" d="M120.9,66.2l12-45.3c7.7,7.2,13.6,16.2,16.9,26.4L120.9,66.2z M110.6,66.2l11-45.3H133l-12,45.3H110.6z"/>
	<path class="st0" d="M127.2,52.6c0.5-2,5.1-19.5,5.5-21.3c0.5-1.8,1.8-5.4,4.2-2.7c3.4,3.9,6.3,8.5,8,13.7c0.8,2.5,1,4.6-1.3,6.1
		c-2.2,1.7-10.5,7.3-12.4,8.6C128.1,59.4,126.2,56.8,127.2,52.6"/>
	<path class="st4" d="M127.2,52.6c0.5-2,5.1-19.5,5.5-21.3c0.5-1.8,1.8-5.4,4.2-2.7c3.4,3.9,6.3,8.5,8,13.7c0.8,2.5,1,4.6-1.3,6.1
		c-2.2,1.7-10.5,7.3-12.4,8.6C128.1,59.4,126.2,56.8,127.2,52.6z"/>
	<path class="st0" d="M86.9,88.8c3.7,4.3,4.6,10.3,2.7,14.9"/>
	<path class="st5" d="M86.9,88.8c3.7,4.3,4.6,10.3,2.7,14.9"/>
	<path class="st0" d="M82.4,117.4c-7.2,0.7-14.1-3.9-16.9-10.6l29.9-2.6C95,111.2,89.6,116.8,82.4,117.4 M87.4,87.1l-21.8,19.7
		c-1-0.8-2-1.6-2.9-2.6c-6-6.7-5.7-16.6,0.4-22.1c6.1-5.6,16.1-4.7,22.1,2C86.1,85,86.7,86.1,87.4,87.1"/>
	<path class="st6" d="M82.4,117.4c-7.2,0.7-14.1-3.9-16.9-10.6l29.9-2.6C95,111.2,89.6,116.8,82.4,117.4z M87.4,87.1l-21.8,19.7
		c-1-0.8-2-1.6-2.9-2.6c-6-6.7-5.7-16.6,0.4-22.1c6.1-5.6,16.1-4.7,22.1,2C86.1,85,86.7,86.1,87.4,87.1z"/>
	<path class="st1" d="M83.7,63.4l14.4-20.1h-8L76.7,63.4H83.7z M83.7,23.1l14.4,20.1h-8L76.7,23.1H83.7z M90.1,43.2L76.7,63.4
		L63.7,43.2l12.9-20.1L90.1,43.2z"/>
</g>
</svg>
